<svg width="430" height="290" viewBox="0 0 430 290" fill="none" xmlns="http://www.w3.org/2000/svg">
<path d="M170 90.4504L206.777 85.1797L206.797 122.512L170.035 122.733L170 90.4504ZM206.762 126.815L206.792 164.178L170.03 158.86V126.562L206.762 126.815ZM211.221 84.4906L259.985 77V122.038L211.221 122.443V84.4906V84.4906ZM260 127.167L259.985 172L211.221 164.751L211.151 127.083L260 127.167V127.167Z" fill="black"/>
<path d="M5.67033 1.5H424.33C426.554 1.5 428.5 3.43372 428.5 6V253C428.5 255.566 426.554 257.5 424.33 257.5H5.67033C3.44586 257.5 1.5 255.566 1.5 253V5.99999C1.5 3.43372 3.44586 1.5 5.67033 1.5Z" stroke="black" stroke-width="3"/>
<line x1="194.599" y1="289.008" x2="194.599" y2="258.992" stroke="black" stroke-width="3"/>
<line x1="234.291" y1="289.008" x2="234.291" y2="258.992" stroke="black" stroke-width="3"/>
<line x1="172.945" y1="287.5" x2="258" y2="287.5" stroke="black" stroke-width="3"/>
</svg>
