<svg width="60" height="60" viewBox="0 0 60 60" fill="none" xmlns="http://www.w3.org/2000/svg">
<path fill-rule="evenodd" clip-rule="evenodd" d="M0 30C0 22.0353 3.10379 14.7955 8.16782 9.42426L10.2902 11.5466C5.76855 16.3741 3 22.8637 3 30C3 44.9117 15.0883 57 30 57C34.9729 57 39.6317 55.6556 43.633 53.3105L45.8182 55.4957C41.2259 58.3509 35.8055 60 30 60C13.4315 60 0 46.5685 0 30ZM51.6857 50.73C56.8363 45.3435 60 38.0412 60 30C60 13.4315 46.5685 0 30 0C24.1164 0 18.6284 1.69372 13.9969 4.62018L16.1781 6.80133C20.2213 4.38716 24.9487 3 30 3C44.9117 3 57 15.0883 57 30C57 37.2128 54.1718 43.765 49.5638 48.6081L51.6857 50.73Z" fill="url(#paint0_linear_3_10)"/>
<rect x="42.8571" y="44.9624" width="10.5263" height="0.451128" transform="rotate(48 42.8571 44.9624)" fill="url(#paint1_linear_3_10)"/>
<rect x="11.7293" y="7.0065" width="10.5263" height="0.451128" transform="rotate(46.5 11.7293 7.0065)" fill="url(#paint2_linear_3_10)"/>
<path d="M29.9 37.24C28.7267 37.24 27.7267 37.0267 26.9 36.6C26.0867 36.1733 25.3867 35.6 24.8 34.88L26.36 33.42C26.8533 34.02 27.3933 34.4733 27.98 34.78C28.58 35.0867 29.26 35.24 30.02 35.24C30.9133 35.24 31.5867 35.04 32.04 34.64C32.4933 34.24 32.72 33.7 32.72 33.02C32.72 32.4733 32.56 32.04 32.24 31.72C31.92 31.4 31.3533 31.16 30.54 31L29.3 30.78C27.94 30.5267 26.92 30.08 26.24 29.44C25.56 28.8 25.22 27.92 25.22 26.8C25.22 26.1867 25.3333 25.6333 25.56 25.14C25.8 24.6333 26.1267 24.2133 26.54 23.88C26.9667 23.5333 27.48 23.2667 28.08 23.08C28.68 22.8933 29.3533 22.8 30.1 22.8C31.1533 22.8 32.0667 22.9867 32.84 23.36C33.6133 23.72 34.2733 24.2467 34.82 24.94L33.24 26.34C32.88 25.8733 32.44 25.5 31.92 25.22C31.4 24.94 30.7533 24.8 29.98 24.8C29.18 24.8 28.56 24.96 28.12 25.28C27.68 25.6 27.46 26.0667 27.46 26.68C27.46 27.2667 27.64 27.7067 28 28C28.36 28.28 28.92 28.4933 29.68 28.64L30.92 28.9C32.32 29.1667 33.34 29.62 33.98 30.26C34.6333 30.9 34.96 31.78 34.96 32.9C34.96 33.5533 34.8467 34.1467 34.62 34.68C34.3933 35.2133 34.06 35.6733 33.62 36.06C33.1933 36.4333 32.6667 36.7267 32.04 36.94C31.4133 37.14 30.7 37.24 29.9 37.24Z" fill="url(#paint3_linear_3_10)"/>
<defs>
<linearGradient id="paint0_linear_3_10" x1="-5.5" y1="24" x2="81.5" y2="30" gradientUnits="userSpaceOnUse">
<stop stop-color="#01A4FF"/>
<stop offset="1" stop-color="#01FFC2"/>
</linearGradient>
<linearGradient id="paint1_linear_3_10" x1="41.8922" y1="45.1429" x2="46.1646" y2="52.0179" gradientUnits="userSpaceOnUse">
<stop stop-color="#01A4FF"/>
<stop offset="1" stop-color="#01FFC2"/>
</linearGradient>
<linearGradient id="paint2_linear_3_10" x1="10.7644" y1="7.18695" x2="15.0368" y2="14.062" gradientUnits="userSpaceOnUse">
<stop stop-color="#01A4FF"/>
<stop offset="1" stop-color="#01FFC2"/>
</linearGradient>
<linearGradient id="paint3_linear_3_10" x1="22.9386" y1="25.985" x2="39.7907" y2="26.5241" gradientUnits="userSpaceOnUse">
<stop stop-color="#01A4FF"/>
<stop offset="1" stop-color="#01FFC2"/>
</linearGradient>
</defs>
</svg>
